<?xml version="1.0" standalone="no"?>
<!DOCTYPE svg PUBLIC "-//W3C//DTD SVG 20010904//EN"
 "http://www.w3.org/TR/2001/REC-SVG-20010904/DTD/svg10.dtd">
<svg version="1.0" xmlns="http://www.w3.org/2000/svg"
 width="82pt" height="12t" viewBox="0 0 822.000000 1280.000000"
 preserveAspectRatio="xMidYMid meet">
<metadata>
Created by potrace 1.15, written by Peter Selinger 2001-2017
</metadata>
<g transform="translate(0.000000,1280.000000) scale(0.100000,-0.100000)"
fill="#000000" stroke="none">
<path d="M2818 12790 c-174 -31 -319 -107 -445 -231 -120 -118 -205 -262 -255
-434 l-23 -80 -3 -2278 -2 -2277 -113 114 c-119 121 -213 195 -342 269 -291
167 -688 229 -980 152 -225 -59 -433 -233 -545 -454 -197 -394 -121 -867 187
-1162 87 -83 163 -133 274 -180 97 -41 171 -89 202 -131 13 -18 83 -126 156
-239 92 -145 134 -221 142 -255 6 -27 14 -231 19 -454 10 -520 37 -748 131
-1123 191 -759 599 -1467 1128 -1956 314 -290 358 -344 456 -559 117 -259 125
-315 125 -910 0 -258 3 -484 6 -501 9 -42 56 -89 100 -97 59 -11 121 28 140
89 l9 27 1880 0 1880 0 3 -25 c2 -14 17 -38 33 -55 53 -52 128 -50 181 7 l23
25 6 556 c6 522 11 617 40 802 30 190 102 451 175 638 63 159 133 296 249 487
123 202 200 348 265 498 160 374 257 772 290 1186 14 190 14 4131 -1 4237 -65
471 -455 817 -888 791 -199 -12 -366 -83 -518 -221 l-53 -48 0 60 c0 137 -51
326 -124 456 -120 214 -323 373 -551 432 -95 24 -275 24 -370 0 -155 -40 -324
-141 -424 -253 l-49 -55 -12 39 c-67 206 -250 417 -447 517 -76 38 -214 75
-307 82 -204 16 -440 -68 -595 -211 -32 -30 -61 -55 -65 -55 -3 0 -7 458 -8
1018 l-3 1017 -28 88 c-54 173 -120 289 -231 406 -107 112 -248 197 -391 235
-70 19 -260 29 -327 16z"/>
</g>
</svg>
